<svg id="Layer_1" data-name="Layer 1" xmlns="http://www.w3.org/2000/svg" viewBox="0 0 122.66 38.83"><defs><style>.cls-1{fill:#fff;}</style></defs><path class="cls-1" d="M37.71,28.93l1.92-1.4a2.75,2.75,0,0,0,2.45,1.66c1.47,0,2.22-.8,2.22-3V15.62h2.79V26.39c0,2.88-1.41,5.22-4.69,5.22A4.94,4.94,0,0,1,37.71,28.93Z" transform="translate(-4.32 -0.59)"/><path class="cls-1" d="M50.12,28.15c0-2.52,2.09-3.84,6.93-4.36,0-1.26-.54-2.32-2.14-2.32a6.55,6.55,0,0,0-3.31,1.16l-1-1.84a9.18,9.18,0,0,1,4.84-1.55c2.95,0,4.4,1.82,4.4,5.1v7H57.55L57.34,30h-.08a5.64,5.64,0,0,1-3.65,1.6A3.3,3.3,0,0,1,50.12,28.15Zm6.93,0V25.51c-3.19.41-4.26,1.24-4.26,2.43,0,1,.71,1.5,1.7,1.5A3.7,3.7,0,0,0,57.05,28.16Z" transform="translate(-4.32 -0.59)"/><path class="cls-1" d="M65.45,25.18,62,19.53h3l1.31,2.24c.34.65.71,1.33,1.07,2h.1c.3-.65.63-1.33.93-2l1.12-2.24h2.87l-3.49,5.95,3.74,5.84h-3L68.17,29c-.39-.69-.78-1.41-1.19-2.09h-.1c-.35.68-.69,1.38-1,2.09l-1.25,2.33H61.72Z" transform="translate(-4.32 -0.59)"/><path class="cls-1" d="M77.42,18H72.89V15.62H84.73V18H80.2V31.32H77.42Z" transform="translate(-4.32 -0.59)"/><path class="cls-1" d="M86.8,15.9a1.72,1.72,0,0,1,3.42,0,1.72,1.72,0,0,1-3.42,0Zm.31,3.63h2.77V31.32H87.11Z" transform="translate(-4.32 -0.59)"/><path class="cls-1" d="M92.68,25.43c0-3.84,2.41-6.19,5-6.19a4.35,4.35,0,0,1,3.1,1.3l-.11-1.9V14.36h2.76v17h-2.26L101,30h-.08a4.9,4.9,0,0,1-3.35,1.57C94.58,31.61,92.68,29.32,92.68,25.43Zm8,2.57V22.51a3.48,3.48,0,0,0-2.4-1c-1.5,0-2.74,1.42-2.74,3.88s1,3.91,2.68,3.91A3.12,3.12,0,0,0,100.66,28Z" transform="translate(-4.32 -0.59)"/><path class="cls-1" d="M106.16,25.43c0-3.83,2.66-6.19,5.43-6.19,3.19,0,4.87,2.31,4.87,5.6a7.23,7.23,0,0,1-.12,1.34h-7.48a3.35,3.35,0,0,0,3.47,3.29,5,5,0,0,0,2.74-.86l.94,1.72a7.29,7.29,0,0,1-4,1.28C108.71,31.61,106.16,29.32,106.16,25.43Zm7.91-1.13c0-1.81-.81-2.92-2.42-2.92-1.37,0-2.58,1-2.82,2.92Z" transform="translate(-4.32 -0.59)"/><path class="cls-1" d="M117.93,30l1.29-1.76a5.18,5.18,0,0,0,3.26,1.31c1.28,0,1.89-.6,1.89-1.41,0-1-1.28-1.43-2.54-1.91-1.54-.58-3.31-1.47-3.31-3.43s1.65-3.53,4.29-3.53a6.39,6.39,0,0,1,3.92,1.41l-1.27,1.7a4.4,4.4,0,0,0-2.58-1c-1.19,0-1.75.56-1.75,1.3,0,.93,1.19,1.29,2.47,1.76C125.19,25,127,25.75,127,28c0,2-1.61,3.66-4.58,3.66A7.41,7.41,0,0,1,117.93,30Z" transform="translate(-4.32 -0.59)"/><path class="cls-1" d="M11.32,19.47A25.24,25.24,0,0,1,15.48,14a27.29,27.29,0,0,1,11.8-6.8A43.29,43.29,0,0,1,38.71,5.62a18.61,18.61,0,0,1,5.41-1.54A26.62,26.62,0,0,0,6.76,38.34,48.83,48.83,0,0,1,8.62,25.8,33.3,33.3,0,0,1,11.32,19.47Z" transform="translate(-4.32 -0.59)"/><path class="cls-1" d="M6.74,39.41h.54c-.18-.35-.35-.71-.52-1.07C6.76,38.7,6.74,39.05,6.74,39.41Z" transform="translate(-4.32 -0.59)"/><path class="cls-1" d="M38.69,5.65c.72,0,1.43,0,2.15,0-.71,0-1.42,0-2.13,0l0,0Z" transform="translate(-4.32 -0.59)"/><path class="cls-1" d="M14.49,35.06l0-.72.11-.72a41,41,0,0,1,1-5.71l.37-1.41.18-.7.27-.68,1-2.72,1.37-2.57a8.76,8.76,0,0,1,.79-1.22l.84-1.18a23,23,0,0,1,9-7.09,28.68,28.68,0,0,1,10.8-2.21h0A16.38,16.38,0,0,1,43,7.56a23.73,23.73,0,0,0-4.3-1.91A42.75,42.75,0,0,0,27.33,7.37a26.94,26.94,0,0,0-11.58,6.88,24.61,24.61,0,0,0-4,5.45A32.46,32.46,0,0,0,9.16,26,49.21,49.21,0,0,0,7.49,39.41h6.77l.15-2.9Z" transform="translate(-4.32 -0.59)"/><path class="cls-1" d="M42.94,9.38a22.79,22.79,0,0,0-2.53-1.24,28.27,28.27,0,0,0-10.72,2.43A22.56,22.56,0,0,0,21,17.73l-.8,1.18a7.83,7.83,0,0,0-.74,1.21l-1.29,2.54-1,2.68-.24.67-.17.69-.33,1.39a40.87,40.87,0,0,0-.91,5.62l-.09.71,0,.71-.05,1.43-.09,2.85H37.6A18.94,18.94,0,0,1,33,36a16,16,0,0,1,9.91-26.6Z" transform="translate(-4.32 -0.59)"/><path class="cls-1" d="M40.84,8.12h-.43Z" transform="translate(-4.32 -0.59)"/></svg>